<?xml version="1.0" standalone="no"?>
<!DOCTYPE svg PUBLIC "-//W3C//DTD SVG 20010904//EN"
 "http://www.w3.org/TR/2001/REC-SVG-20010904/DTD/svg10.dtd">
<svg version="1.0" xmlns="http://www.w3.org/2000/svg"
 width="450.000000pt" height="240.000000pt" viewBox="0 0 450.000000 240.000000"
 preserveAspectRatio="xMidYMid meet">

<g transform="translate(0.000000,240.000000) scale(0.100000,-0.100000)"
fill="##9b2407" stroke="none">
<path d="M2016 1944 c-11 -28 -6 -130 6 -142 19 -19 66 -15 78 7 15 29 12 41
-9 41 -27 0 -51 37 -51 77 0 35 -14 44 -24 17z"/>
<path d="M1333 1868 c-12 -16 2 -547 15 -560 5 -5 33 -8 63 -6 53 3 54 4 57
35 3 31 3 32 -45 35 l-48 3 -9 253 c-5 138 -12 252 -16 252 -4 0 -12 -6 -17
-12z"/>
<path d="M1752 1848 c-20 -20 -13 -41 28 -85 54 -57 72 -66 98 -47 22 15 30
54 12 54 -6 0 -33 20 -59 45 -51 48 -60 52 -79 33z"/>
<path d="M2357 1774 c-32 -28 -59 -31 -77 -9 -10 12 -16 13 -26 4 -21 -17 -17
-32 14 -61 l27 -26 49 42 c28 25 47 49 45 58 -3 14 -8 13 -32 -8z"/>
<path d="M1522 1677 c-32 -34 -29 -55 9 -49 22 3 37 -2 55 -19 22 -20 24 -30
24 -108 0 -47 3 -110 7 -139 l6 -53 61 3 c61 3 61 3 64 36 l3 32 -50 0 -51 0
-1 88 c-1 132 -12 202 -34 218 -28 21 -69 17 -93 -9z"/>
<path d="M2572 1644 c-12 -8 -29 -29 -38 -46 -15 -29 -15 -31 2 -23 51 22 99
16 147 -17 16 -11 22 -8 47 22 32 38 42 73 15 50 -12 -10 -21 -8 -48 9 -41 25
-94 27 -125 5z"/>
<path d="M2020 1633 c-31 -21 -49 -44 -50 -61 0 -9 5 -10 19 -2 11 5 38 10 61
10 34 0 48 -6 76 -34 22 -22 34 -44 34 -62 0 -27 1 -27 15 -8 8 10 15 39 15
63 0 36 -6 49 -34 77 -27 27 -42 34 -73 34 -21 0 -50 -8 -63 -17z"/>
<path d="M1101 1616 c-22 -12 -50 -50 -51 -68 0 -4 12 -3 26 2 36 14 64 12 98
-5 39 -21 41 -20 65 21 23 38 26 48 12 40 -5 -3 -25 1 -45 9 -43 18 -73 19
-105 1z"/>
<path d="M2995 1618 c-25 -13 -54 -49 -55 -65 0 -9 7 -10 26 -3 66 25 129 -12
141 -82 5 -37 7 -39 20 -23 7 11 13 41 13 68 0 42 -5 54 -34 83 -36 36 -73 43
-111 22z"/>
<path d="M1820 1565 c-30 -85 -6 -199 54 -254 16 -16 26 -35 26 -54 0 -96 188
-129 222 -39 6 16 27 38 46 48 39 21 97 85 105 116 5 18 2 17 -26 -9 -18 -16
-44 -37 -59 -46 -16 -10 -28 -23 -28 -30 0 -16 -37 -51 -64 -61 -11 -4 -40 -4
-65 0 -56 9 -101 49 -101 92 0 16 -9 37 -20 47 -43 39 -64 87 -70 159 l-5 71
-15 -40z"/>
<path d="M2373 1567 c-19 -42 -16 -145 6 -192 39 -84 124 -135 225 -135 62 0
121 27 121 55 0 19 -6 20 -76 17 -93 -5 -147 16 -197 72 -42 48 -53 76 -61
151 -6 57 -6 58 -18 32z"/>
<path d="M901 1543 c-50 -110 2 -260 108 -312 55 -26 186 -22 235 8 23 15 36
29 34 40 -4 17 -11 18 -78 1 -122 -30 -249 52 -280 181 -7 27 -10 63 -6 80 7
36 3 37 -13 2z"/>
<path d="M2782 1521 c-27 -75 -7 -176 45 -237 43 -51 144 -89 210 -80 74 10
148 58 179 118 21 40 17 45 -13 16 -49 -46 -93 -62 -163 -62 -130 0 -220 84
-238 222 l-8 57 -12 -34z"/>
<path d="M680 829 c0 -367 1 -390 18 -385 9 3 40 10 67 17 74 18 87 26 79 52
-3 12 -7 23 -8 24 -1 1 -28 -5 -60 -13 -32 -8 -61 -12 -65 -9 -3 4 -7 164 -9
356 -2 212 -7 349 -12 349 -6 0 -10 -150 -10 -391z"/>
<path d="M1305 1048 c3 -73 10 -252 15 -397 6 -145 12 -266 14 -269 3 -2 50 1
106 8 84 11 100 16 100 31 0 44 -6 46 -94 34 l-84 -11 -6 25 c-3 14 -11 180
-18 369 -9 273 -14 342 -25 342 -11 0 -12 -26 -8 -132z"/>
<path d="M1525 1120 c-14 -23 5 -60 39 -74 19 -8 42 -26 52 -41 20 -31 34 -19
34 32 0 23 -8 38 -31 57 -17 14 -37 26 -44 26 -7 0 -20 3 -28 6 -8 3 -18 0
-22 -6z"/>
<path d="M1122 1007 c-83 -83 -107 -117 -84 -117 9 0 202 193 202 203 0 23
-36 -3 -118 -86z"/>
<path d="M2630 1088 c0 -25 52 -573 56 -597 5 -23 7 -23 77 -17 102 10 104 11
99 47 -5 33 -8 33 -114 13 -19 -4 -28 -1 -32 13 -5 16 -56 508 -56 541 0 6 -7
12 -15 12 -8 0 -15 -6 -15 -12z"/>
<path d="M3127 1090 c-5 -16 -29 -531 -25 -535 2 -2 42 -5 91 -6 l87 -4 0 31
c0 28 -4 32 -37 38 -21 3 -54 6 -74 6 -49 0 -50 8 -37 258 9 190 8 249 -5 212z"/>
<path d="M3580 1069 c0 -4 6 -9 13 -12 6 -3 38 -17 69 -31 l58 -26 15 30 c17
32 20 55 4 27 -8 -14 -14 -15 -31 -6 -25 14 -128 28 -128 18z"/>
<path d="M1910 795 l0 -275 96 0 95 0 -3 32 -3 33 -76 -3 -76 -4 -7 32 c-3 18
-6 129 -6 246 0 136 -4 214 -10 214 -6 0 -10 -98 -10 -275z"/>
<path d="M2820 1041 c0 -26 6 -33 34 -45 19 -8 40 -24 46 -36 13 -25 24 -18
34 22 9 37 -27 77 -76 85 -37 5 -38 5 -38 -26z"/>
<path d="M2376 1042 c5 -5 39 -23 76 -40 l67 -30 10 29 c6 16 7 27 2 25 -4 -3
-29 1 -56 9 -53 16 -115 20 -99 7z"/>
<path d="M3365 1007 c-15 -100 18 -172 97 -211 54 -27 150 -36 163 -16 4 6
-30 27 -77 49 -98 45 -143 89 -153 153 -12 69 -22 78 -30 25z"/>
<path d="M3765 1040 c-9 -14 0 -23 26 -27 15 -2 20 2 17 14 -4 21 -33 29 -43
13z"/>
<path d="M2167 1017 c-4 -10 -7 -46 -7 -79 0 -112 64 -178 186 -193 50 -6 82
4 70 23 -3 5 -36 22 -73 37 -38 14 -83 40 -100 58 -31 29 -58 91 -65 147 -3
22 -4 22 -11 7z"/>
<path d="M1786 841 c-34 -35 -41 -61 -16 -61 11 0 65 89 58 95 -2 3 -21 -13
-42 -34z"/>
<path d="M3024 795 c-20 -31 -55 -51 -107 -60 -43 -8 -51 -17 -42 -45 15 -48
100 -6 149 73 30 49 31 79 0 32z"/>
<path d="M874 749 c-12 -14 -15 -24 -9 -34 119 -167 180 -248 190 -251 6 -3
53 -3 103 -2 l92 3 -22 32 c-22 31 -26 33 -89 33 l-66 0 -84 120 c-46 65 -87
119 -90 120 -3 0 -14 -9 -25 -21z"/>
<path d="M1540 700 c0 -16 4 -30 8 -30 4 0 37 -58 72 -130 35 -72 70 -130 78
-130 7 0 51 10 97 21 78 20 84 23 74 41 -17 32 -33 33 -139 2 -12 -3 -33 31
-80 126 -54 110 -68 130 -87 130 -19 0 -23 -5 -23 -30z"/>
<path d="M3769 614 c-62 -68 -211 -88 -332 -45 l-57 20 -16 -30 -15 -30 48
-22 c40 -18 67 -22 153 -22 97 0 109 2 152 28 30 17 57 44 74 73 31 52 28 65
-7 28z"/>
<path d="M2564 589 c-10 -12 -37 -31 -59 -43 -56 -29 -206 -29 -282 1 l-52 21
-11 -29 c-7 -15 -9 -33 -5 -38 11 -20 119 -44 195 -45 101 -1 178 34 216 100
29 49 28 66 -2 33z"/>
</g>
</svg>
